<svg width="205" height="157" viewBox="0 0 205 157" fill="none" xmlns="http://www.w3.org/2000/svg">
<g filter="url(#filter0_d_170_321)">
<path d="M184.25 70.4027L151.578 111.951C151.086 112.574 150.182 112.683 149.555 112.194L110.799 81.8228C110.176 81.3308 110.067 80.4286 110.556 79.803L148.891 31.0487C149.384 30.4258 150.288 30.3172 150.914 30.8056L182.448 55.5184L183.026 60.3073L183.644 65.4248L184.25 70.4027Z" fill="black"/>
</g>
<path d="M184.25 70.4027L151.578 111.951C151.086 112.574 150.182 112.683 149.555 112.194L110.799 81.8228C110.176 81.3308 110.067 80.4286 110.556 79.803L148.891 31.0487C149.384 30.4258 150.288 30.3172 150.914 30.8056L182.448 55.5184L183.026 60.3073L183.644 65.4248L184.25 70.4027Z" fill="white"/>
<path d="M177.25 64.5C177.281 64.7599 176.71 65.9581 184.351 72.5L185.25 71.409L177.25 64.5Z" fill="#CECECE"/>
<path d="M177.724 62.6998C176.967 63.6742 177.135 65.0818 178.1 65.8475L185.25 71.5L183.336 55.5L177.724 62.6998Z" fill="#EDEDED"/>
<path d="M133.344 86.4191C133.5 86.1863 133.344 85.8819 133.031 85.9061C132.609 85.9467 132.184 85.9443 131.762 85.8989L131.188 85.7745C130.781 85.7273 130.701 85.5056 130.95 85.1093C131.392 85.0556 131.309 84.4468 130.867 84.4772C130.322 84.5148 129.594 84.5721 129.146 84.2005C129.007 84.0731 128.891 83.9266 128.801 83.7663C128.958 83.7606 129.113 83.7399 129.266 83.7045C129.392 83.6741 129.451 83.5541 129.48 83.4521C129.565 83.1638 129.556 82.9319 129.577 82.7099C131.559 82.3876 133.616 81.6436 135.11 80.5862C135.401 80.3812 135.198 80.006 134.864 80.0141C133.304 80.0544 131.698 80.3382 130.296 80.9989C129.801 81.2308 129.314 81.5173 129.065 81.9954C129.042 82.0451 129.022 82.0959 129.005 82.1476C128.547 82.2099 128.086 82.2458 127.624 82.2551C127.008 82.2718 126.393 82.1972 125.802 82.0339C125.378 81.9095 124.734 81.7286 124.734 81.2613C125.834 81.3624 126.91 81.195 127.116 80.2549C127.426 78.8404 124.965 79.69 124.21 80.562C123.702 80.4748 123.203 80.3416 122.723 80.1645C122.31 80.0168 122.044 80.6032 122.457 80.7518C122.946 80.922 123.448 81.0558 123.96 81.152C123.804 82.674 126.767 82.9238 127.857 82.8889C128.181 82.8782 128.515 82.8522 128.852 82.8146C128.812 83.1871 128.852 83.1486 128.261 83.1405C127.961 83.1405 127.767 83.4001 127.936 83.6455C128.248 84.0985 128.506 84.6491 129.035 84.9132C129.201 84.9917 129.38 85.0475 129.564 85.0788C129.519 85.1561 129.512 85.247 129.543 85.3295C129.965 86.2982 131.243 86.5436 132.342 86.5615C131.575 87.3005 130.545 87.7593 129.44 87.8534C127.759 87.9751 126.537 86.8945 125.456 85.8604C125.152 85.5695 124.594 85.9446 124.9 86.2383C126.08 87.3663 127.382 88.5177 129.194 88.4998C130.777 88.4801 132.503 87.6654 133.344 86.4191ZM125.869 80.1896C126.549 80.1591 125.795 80.5602 125.533 80.6059C125.365 80.6326 125.193 80.6422 125.023 80.6345C125.163 80.4707 125.678 80.1985 125.868 80.1869L125.869 80.1896ZM130.108 81.8298C130.521 81.4931 131.244 81.2926 131.766 81.1323C132.348 80.957 132.946 80.8311 133.552 80.7563C132.418 81.3299 131.198 81.7468 129.933 81.9936C129.988 81.9361 130.046 81.8815 130.107 81.8298H130.108Z" fill="#4684AF"/>
<path d="M157.891 46.3477L173.263 58.4136C173.86 58.8821 173.964 59.7458 173.495 60.3426C173.027 60.9395 172.163 61.0435 171.566 60.575L156.195 48.5091C155.598 48.0406 155.494 47.177 155.962 46.5801C156.431 45.9832 157.294 45.8792 157.891 46.3477Z" fill="#D2D4D8"/>
<path d="M173.52 71.4623L144.315 47.7299C144.241 47.6693 144.228 47.5582 144.286 47.4811L145.738 45.5676C145.796 45.4909 145.903 45.4775 145.978 45.5375L175.185 69.267C175.259 69.3279 175.272 69.4389 175.213 69.5158L173.762 71.4302C173.734 71.4679 173.693 71.4925 173.647 71.4986C173.602 71.5046 173.556 71.4915 173.52 71.4623Z" fill="#D2D4D8"/>
<path d="M170.521 76.4613L141.315 52.7297C141.241 52.6692 141.228 52.5581 141.286 52.481L142.738 50.5676C142.796 50.4909 142.904 50.4775 142.978 50.5375L172.185 74.271C172.259 74.3316 172.272 74.4427 172.214 74.5198L170.762 76.4341C170.703 76.51 170.595 76.5221 170.521 76.4613Z" fill="#D2D4D8"/>
<path d="M166.523 80.463L137.315 56.7299C137.241 56.6696 137.228 56.5589 137.286 56.4821L138.739 54.5676C138.797 54.4909 138.904 54.4775 138.979 54.5375L168.184 78.2706C168.22 78.2994 168.243 78.3417 168.249 78.3882C168.254 78.4348 168.242 78.4816 168.213 78.5184L166.762 80.4328C166.704 80.5089 166.597 80.5223 166.523 80.463Z" fill="#D2D4D8"/>
<path d="M163.525 84.464L134.315 60.7309C134.241 60.6704 134.228 60.5593 134.286 60.4821L135.738 58.5676C135.796 58.4909 135.904 58.4775 135.978 58.5375L165.185 82.2715C165.259 82.332 165.272 82.4424 165.214 82.5193L163.762 84.4338C163.704 84.5086 163.599 84.5219 163.525 84.464Z" fill="#D2D4D8"/>
<path d="M160.522 90.4629L131.315 66.7302C131.241 66.6696 131.228 66.5585 131.286 66.4814L132.738 64.567C132.797 64.4906 132.904 64.4776 132.978 64.5379L162.185 88.2696C162.259 88.3304 162.272 88.4415 162.213 88.5183L160.762 90.4318C160.704 90.5088 160.596 90.5227 160.522 90.4629Z" fill="#D2D4D8"/>
<path d="M157.522 93.4621L128.315 69.7299C128.241 69.669 128.228 69.558 128.287 69.4811L129.738 67.5676C129.797 67.4909 129.904 67.4775 129.978 67.5375L159.185 91.2698C159.259 91.3303 159.272 91.4414 159.214 91.5185L157.762 93.433C157.703 93.5093 157.596 93.5224 157.522 93.4621Z" fill="#D2D4D8"/>
<path d="M141.973 100.542C140.541 99.4185 139.926 97.5428 140.416 95.7896C140.906 94.0364 142.404 92.7509 144.21 92.5326C146.017 92.3143 147.778 93.2062 148.671 94.7923C149.564 96.3784 149.414 98.3465 148.291 99.7787C146.755 101.732 143.929 102.074 141.973 100.542ZM146.929 94.2281C145.398 93.0244 143.181 93.2902 141.977 94.8218C140.774 96.3534 141.039 98.5707 142.571 99.7744C144.102 100.978 146.319 100.712 147.522 99.1808C148.724 97.6487 148.458 95.4328 146.929 94.2281Z" fill="#D2D4D8"/>
<g filter="url(#filter1_d_170_321)">
<path d="M100.118 79.4097L56.6397 109.449C56.5052 109.541 56.3236 109.505 56.2326 109.368L20.2998 55.0087C20.2097 54.8716 20.2452 54.6858 20.3792 54.5935L63.8606 24.5509C63.9947 24.4588 64.1764 24.4951 64.2667 24.632L100.199 78.9916C100.243 79.0579 100.26 79.1394 100.244 79.218C100.229 79.2966 100.184 79.3656 100.118 79.4097Z" fill="black"/>
</g>
<path d="M100.118 79.4097L56.6397 109.449C56.5052 109.541 56.3236 109.505 56.2326 109.368L20.2998 55.0087C20.2097 54.8716 20.2452 54.6858 20.3792 54.5935L63.8606 24.5509C63.9947 24.4588 64.1764 24.4951 64.2667 24.632L100.199 78.9916C100.243 79.0579 100.26 79.1394 100.244 79.218C100.229 79.2966 100.184 79.3656 100.118 79.4097Z" fill="white"/>
<path d="M44.1665 47.2124L30.0213 57.465C29.9336 57.5282 29.8148 57.5035 29.7554 57.4097L28.2827 55.0728C28.2237 54.9787 28.2467 54.8512 28.3342 54.7876L42.4793 44.535C42.567 44.4718 42.6859 44.4965 42.7452 44.5903L44.217 46.9272C44.2762 47.021 44.2536 47.1484 44.1665 47.2124Z" fill="#D2D4D8"/>
<path d="M68.1618 40.0753L33.0747 63.4671C32.9841 63.5266 32.862 63.5032 32.8004 63.4147L31.284 61.1964C31.223 61.1074 31.2463 60.9865 31.3362 60.9258L66.4242 37.535C66.4671 37.5051 66.5204 37.4937 66.572 37.5034C66.6236 37.5131 66.6689 37.5431 66.6976 37.5864L68.2169 39.8047C68.2773 39.8945 68.2527 40.0155 68.1618 40.0753Z" fill="#D2D4D8"/>
<path d="M72.1632 46.0749L37.0782 69.4653C37.0352 69.4951 36.9818 69.5064 36.9302 69.4965C36.8786 69.4866 36.8334 69.4564 36.8048 69.4129L35.2856 67.1957C35.2551 67.1533 35.2435 67.1003 35.2535 67.0492C35.2636 66.9981 35.2944 66.9533 35.3387 66.9251L70.4238 43.5347C70.4667 43.5049 70.5201 43.4936 70.5717 43.5035C70.6233 43.5134 70.6686 43.5436 70.6971 43.5871L72.2163 45.8043C72.2771 45.8935 72.2534 46.0145 72.1632 46.0749Z" fill="#D2D4D8"/>
<path d="M77.1644 52.0736L42.0762 75.4653C42.0332 75.4951 41.9798 75.5064 41.9282 75.4965C41.8767 75.4866 41.8314 75.4564 41.8029 75.4129L40.2837 73.1956C40.2229 73.1064 40.2466 72.9854 40.3368 72.925L75.4211 49.5332C75.5116 49.4732 75.6342 49.4967 75.6954 49.5857L77.2136 51.8039C77.2442 51.8458 77.2562 51.8982 77.2469 51.949C77.2377 51.9999 77.2078 52.0448 77.1644 52.0736Z" fill="#D2D4D8"/>
<path d="M80.1635 57.0754L45.0787 80.4667C44.9882 80.5268 44.8656 80.5033 44.8044 80.4143L43.2852 78.1961C43.2549 78.1537 43.2435 78.101 43.2535 78.0501C43.2636 77.9993 43.2942 77.9546 43.3383 77.9265L78.4232 54.5352C78.4662 54.505 78.5199 54.4936 78.5717 54.5035C78.6235 54.5134 78.6689 54.5438 78.6975 54.5876L80.2167 56.8048C80.2769 56.8942 80.2533 57.0147 80.1635 57.0754Z" fill="#D2D4D8"/>
<path d="M84.1646 63.121L59.048 80.4661C58.9591 80.5272 58.8385 80.5034 58.7783 80.4128L57.2846 78.1536C57.2549 78.1105 57.2436 78.0568 57.2535 78.005C57.2633 77.9532 57.2934 77.9077 57.3368 77.879L82.4534 60.5339C82.5424 60.4728 82.6629 60.4966 82.7231 60.5872L84.2169 62.8454C84.2767 62.9363 84.2533 63.0595 84.1646 63.121Z" fill="#D2D4D8"/>
<path d="M88.1626 69.0715L53.0772 92.4664C52.987 92.5266 52.8645 92.5037 52.8029 92.415L51.2837 90.1966C51.2229 90.1074 51.2466 89.9864 51.3368 89.926L86.4222 66.5329C86.5128 66.4734 86.635 66.4968 86.6965 66.5853L88.2158 68.8037C88.2454 68.8459 88.2564 68.8982 88.2464 68.9486C88.2364 68.999 88.2062 69.0433 88.1626 69.0715Z" fill="#D2D4D8"/>
<path d="M92.1636 75.0729L57.078 98.4667C56.9876 98.5268 56.865 98.5033 56.8037 98.4143L55.2855 96.1968C55.2552 96.1545 55.2436 96.1019 55.2534 96.051C55.2633 96.0002 55.2937 95.9554 55.3376 95.9271L90.4232 72.5333C90.5137 72.4732 90.6363 72.4967 90.6975 72.5857L92.2167 74.8032C92.2769 74.8922 92.2532 75.0125 92.1636 75.0729Z" fill="#D2D4D8"/>
<g filter="url(#filter2_d_170_321)">
<path d="M65.473 80.4947C65.2826 80.528 65.101 80.4016 65.0663 80.2116L53.2553 14.5102C53.222 14.3199 53.3485 14.1385 53.5387 14.1038L107.028 4.5052C107.218 4.47241 107.399 4.59806 107.434 4.78734L119.244 70.4897C119.278 70.6798 119.152 70.8614 118.962 70.8961L65.473 80.4947Z" fill="black"/>
</g>
<path d="M65.473 80.4947C65.2826 80.528 65.101 80.4016 65.0663 80.2116L53.2553 14.5102C53.222 14.3199 53.3485 14.1385 53.5387 14.1038L107.028 4.5052C107.218 4.47241 107.399 4.59806 107.434 4.78734L119.244 70.4897C119.278 70.6798 119.152 70.8614 118.962 70.8961L65.473 80.4947Z" fill="white"/>
<path d="M71.543 42.8406L77.9974 41.6816L81.2767 59.9437L74.8223 61.1027L71.543 42.8406Z" fill="#D2D4D8"/>
<path d="M80.1357 46.3777L86.5901 45.2187L88.9855 58.5582L82.5311 59.7173L80.1357 46.3777Z" fill="#D2D4D8"/>
<path d="M88.4639 48.9564L94.9183 47.7974L96.6052 57.192L90.1508 58.351L88.4639 48.9564Z" fill="#D2D4D8"/>
<path d="M94.8896 41.3248L101.344 40.1658L104.158 55.8356L97.7034 56.9947L94.8896 41.3248Z" fill="#D2D4D8"/>
<path d="M87.1118 21.0032L60.8585 25.4979C60.7674 25.5119 60.6812 25.454 60.6645 25.3675L60.2522 23.1817C60.2375 23.0949 60.2982 23.0127 60.389 22.9968L86.6423 18.5021C86.7334 18.4881 86.8196 18.546 86.8363 18.6325L87.2476 20.8174C87.263 20.9042 87.2026 20.9868 87.1118 21.0032Z" fill="#D2D4D8"/>
<path d="M99.1139 23.9627L60.8499 30.4979C60.7601 30.5117 60.6751 30.4548 60.6586 30.3697L60.252 28.2201C60.238 28.1347 60.2977 28.0543 60.3869 28.0381L98.6509 21.5019C98.7406 21.4886 98.8252 21.5454 98.8422 21.6302L99.2478 23.7807C99.2624 23.8659 99.203 23.9465 99.1139 23.9627Z" fill="#D2D4D8"/>
<path d="M106.116 27.0045L62.8508 34.498C62.7608 34.5116 62.6759 34.4539 62.6589 34.3676L62.2522 32.1806C62.2376 32.0937 62.2977 32.0115 62.3874 31.9955L105.648 24.502C105.738 24.4884 105.823 24.5461 105.84 24.6324L106.248 26.8185C106.262 26.9044 106.205 26.9863 106.116 27.0045Z" fill="#D2D4D8"/>
<path d="M69.7087 65.9445L97.9103 60.8804C98.6264 60.7519 99.3111 61.2281 99.4397 61.9442C99.5683 62.6603 99.092 63.3451 98.3759 63.4737L70.1744 68.5378C69.4583 68.6664 68.7735 68.1901 68.6449 67.474C68.5164 66.7579 68.9926 66.0731 69.7087 65.9445Z" fill="#D2D4D8"/>
<path d="M113.116 67.0045L69.8508 74.498C69.7608 74.5116 69.6759 74.4538 69.6589 74.3676L69.2522 72.1806C69.2376 72.0937 69.2977 72.0115 69.3874 71.9956L112.648 64.502C112.738 64.4884 112.823 64.5461 112.84 64.6324L113.248 66.8185C113.262 66.9044 113.205 66.9863 113.116 67.0045Z" fill="#D2D4D8"/>
<path d="M86.1076 36.8745L63.8567 40.498C63.7658 40.5113 63.6799 40.4564 63.6632 40.3743L63.2521 38.3016C63.2379 38.2194 63.2983 38.1418 63.3885 38.1262L85.6442 34.5019C85.735 34.489 85.8206 34.5438 85.8377 34.6255L86.2479 36.6991C86.2624 36.7826 86.1997 36.8611 86.1076 36.8745Z" fill="#D2D4D8"/>
<path d="M107.113 33.0704L87.8503 36.498C87.7604 36.5119 87.6756 36.4526 87.6586 36.3641L87.2523 34.1196C87.2372 34.0303 87.2975 33.9456 87.3874 33.9297L106.65 30.5021C106.74 30.4877 106.825 30.5472 106.841 30.636L107.248 32.8796C107.263 32.9691 107.203 33.0541 107.113 33.0704Z" fill="#D2D4D8"/>
<path d="M89.6824 16.9882L102.742 14.6431C103.458 14.5146 104.143 14.9908 104.271 15.7069C104.4 16.4231 103.924 17.1078 103.208 17.2364L90.148 19.5815C89.4319 19.7101 88.7472 19.2338 88.6186 18.5177C88.49 17.8016 88.9663 17.1168 89.6824 16.9882Z" fill="#D2D4D8"/>
<g opacity="0.2">
<path opacity="0.2" d="M140.99 95.484L89.4904 78.7591C89.4024 78.7306 89.3295 78.6687 89.2877 78.5871C89.2458 78.5055 89.2385 78.4108 89.2673 78.3238L110.069 15.7375C110.129 15.5567 110.326 15.4582 110.51 15.517L162.01 32.2419C162.193 32.3021 162.292 32.4969 162.233 32.6781L141.429 95.2616C141.369 95.4417 141.173 95.5408 140.99 95.484Z" fill="#3D3D3D"/>
<path opacity="0.2" d="M137.098 35.3066L129.635 48.0727L115.514 52.7699C117.629 58.9829 123.642 63.0677 130.268 62.7931C136.894 62.5185 142.541 57.9506 144.122 51.5844C145.704 45.2182 142.842 38.5844 137.098 35.3066Z" fill="#3D3D3D"/>
<path opacity="0.2" d="M136.314 32.8378C132.013 30.3818 126.757 30.2068 122.299 32.3712L128.855 45.5963L136.314 32.8378Z" fill="#3D3D3D"/>
<path opacity="0.2" d="M120.643 33.6284C113.916 36.8716 110.677 44.5531 113.082 51.5592L127.204 46.862L120.643 33.6284Z" fill="#3D3D3D"/>
<path opacity="0.2" d="M120.1 67.6257L101.558 61.6028C101.52 61.5912 101.489 61.5652 101.47 61.5305C101.452 61.4959 101.449 61.4555 101.461 61.4184L102.097 59.5046C102.109 59.4663 102.136 59.4345 102.173 59.4166C102.209 59.3986 102.251 59.3961 102.289 59.4095L120.831 65.4315C120.87 65.4431 120.902 65.4701 120.921 65.506C120.939 65.542 120.941 65.5837 120.927 65.6215L120.292 67.5354C120.279 67.5726 120.251 67.6031 120.215 67.6201C120.179 67.637 120.137 67.639 120.1 67.6257Z" fill="#3D3D3D"/>
<path opacity="0.2" d="M128.43 74.9779L100.166 65.7982C100.128 65.7865 100.097 65.7602 100.079 65.7254C100.061 65.6906 100.058 65.6501 100.07 65.6129L100.705 63.6991C100.717 63.6606 100.744 63.6286 100.781 63.6107C100.817 63.5927 100.859 63.5903 100.898 63.604L129.162 72.7837C129.24 72.8091 129.283 72.8917 129.258 72.969L128.622 74.8829C128.61 74.9211 128.583 74.9529 128.547 74.9708C128.511 74.9888 128.469 74.9914 128.43 74.9779Z" fill="#3D3D3D"/>
<path opacity="0.2" d="M117.505 76.7691L98.566 70.6161C98.4881 70.5911 98.4452 70.5088 98.4698 70.4317L99.1062 68.5178C99.1182 68.4807 99.1445 68.4499 99.1795 68.432C99.2145 68.4142 99.2553 68.4109 99.2927 68.4228L118.232 74.5759C118.31 74.6008 118.353 74.6838 118.328 74.7612L117.692 76.675C117.666 76.7516 117.583 76.7935 117.505 76.7691Z" fill="#3D3D3D"/>
<path opacity="0.2" d="M131.872 73.6658L140.328 76.4123C140.93 76.608 141.26 77.2551 141.065 77.8576C141.064 77.8601 141.063 77.8626 141.062 77.8651C140.86 78.4716 140.207 78.8017 139.599 78.6043L131.143 75.8577C130.541 75.662 130.211 75.015 130.407 74.4125C130.407 74.41 130.408 74.4075 130.409 74.405C130.611 73.7985 131.264 73.4683 131.872 73.6658Z" fill="#3D3D3D"/>
<path opacity="0.2" d="M123.752 66.3816L141.721 72.218C142.324 72.4137 142.653 73.0607 142.458 73.6632C142.457 73.6657 142.456 73.6682 142.455 73.6707C142.254 74.2773 141.6 74.6074 140.992 74.41L123.023 68.5735C122.421 68.3778 122.091 67.7308 122.286 67.1283C122.287 67.1258 122.288 67.1233 122.289 67.1208C122.491 66.5142 123.144 66.1841 123.752 66.3816Z" fill="#3D3D3D"/>
</g>
<g filter="url(#filter3_d_170_321)">
<path d="M142.988 88.483L91.4896 71.7579C91.3067 71.6978 91.2074 71.5027 91.2676 71.3217L112.071 8.73749C112.132 8.55665 112.329 8.45821 112.512 8.51702L164.01 25.2421C164.193 25.3022 164.293 25.4973 164.232 25.6783L143.429 88.2625C143.368 88.4434 143.171 88.5418 142.988 88.483Z" fill="black"/>
</g>
<path d="M142.988 88.483L91.4896 71.7579C91.3067 71.6978 91.2074 71.5027 91.2676 71.3217L112.071 8.73749C112.132 8.55665 112.329 8.45821 112.512 8.51702L164.01 25.2421C164.193 25.3022 164.293 25.4973 164.232 25.6783L143.429 88.2625C143.368 88.4434 143.171 88.5418 142.988 88.483Z" fill="white"/>
<path d="M139.061 28.5L131.866 41.4974L118.25 46.2807C120.289 52.6069 126.087 56.7663 132.476 56.4867C138.865 56.2072 144.309 51.556 145.834 45.0738C147.359 38.5917 144.599 31.8372 139.061 28.5Z" fill="#D2D4D8"/>
<path opacity="0.490782" d="M138.25 26.6468C137.298 26.0963 136.292 25.6451 135.248 25.3003C131.293 23.9941 126.985 24.2956 123.25 26.1402L130.267 40.5L138.25 26.6468Z" fill="#3182CE"/>
<path d="M123.212 27.5C115.993 30.7551 112.518 38.4665 115.099 45.5L130.25 40.7846L123.212 27.5Z" fill="#D2D4D8"/>
<path d="M123.391 60.4914L104.358 54.6436C104.318 54.6321 104.285 54.6059 104.266 54.571C104.248 54.5362 104.245 54.4958 104.259 54.4591L104.912 52.6006C104.925 52.5634 104.953 52.5325 104.99 52.5151C105.027 52.4977 105.07 52.4952 105.11 52.5083L124.143 58.3561C124.182 58.3679 124.215 58.3941 124.234 58.4289C124.252 58.4636 124.255 58.5039 124.241 58.5406L123.588 60.3992C123.576 60.4365 123.548 60.4675 123.511 60.485C123.473 60.5024 123.43 60.5048 123.391 60.4914Z" fill="#D4E8E8"/>
<path d="M131.42 68.492L103.354 59.6307C103.316 59.6192 103.284 59.5931 103.266 59.5585C103.248 59.5239 103.245 59.4837 103.259 59.4472L103.891 57.6C103.902 57.563 103.93 57.5323 103.966 57.515C104.002 57.4977 104.043 57.4953 104.081 57.5082L132.147 66.3695C132.185 66.3807 132.216 66.4058 132.234 66.4393C132.252 66.4727 132.255 66.5117 132.243 66.5475L131.612 68.3948C131.601 68.4329 131.574 68.4651 131.538 68.4836C131.501 68.502 131.459 68.5051 131.42 68.492Z" fill="#D4E8E8"/>
<path d="M119.41 70.4916L100.354 64.6062C100.316 64.5952 100.285 64.5703 100.266 64.5371C100.248 64.504 100.245 64.4653 100.257 64.4299L100.897 62.5993C100.909 62.5625 100.936 62.532 100.973 62.5148C101.009 62.4976 101.052 62.4953 101.09 62.5084L120.146 68.3928C120.225 68.4167 120.268 68.496 120.243 68.5701L119.603 70.4007C119.591 70.4375 119.564 70.468 119.527 70.4852C119.491 70.5024 119.448 70.5047 119.41 70.4916Z" fill="#D4E8E8"/>
<path d="M134.342 67.1554L142.745 69.9168C143.356 70.1172 143.688 70.7743 143.487 71.3843C143.287 71.9944 142.63 72.3264 142.02 72.126L133.616 69.3646C133.006 69.1642 132.674 68.5071 132.874 67.8971C133.075 67.287 133.732 66.955 134.342 67.1554Z" fill="#D4E8E8"/>
<path d="M144.412 67.4926L124.354 60.785C124.316 60.7728 124.285 60.7456 124.266 60.7095C124.248 60.6733 124.245 60.6312 124.257 60.5927L124.898 58.606C124.924 58.5257 125.009 58.4815 125.088 58.5074L145.146 65.215C145.184 65.2272 145.215 65.2544 145.234 65.2906C145.252 65.3267 145.255 65.3688 145.243 65.4073L144.602 67.394C144.576 67.4743 144.491 67.5185 144.412 67.4926Z" fill="#D4E8E8"/>
<g filter="url(#filter4_d_170_321)">
<path d="M144.25 57.0242V117.639C144.25 119.222 142.919 120.5 141.275 120.5H68.2322C66.5888 120.5 65.25 119.222 65.25 117.639V48.3696C65.25 46.7865 66.5907 45.5 68.2322 45.5H84.6409C85.661 45.4942 86.6146 46.0071 87.1739 46.8624L90.9577 52.7857C91.5134 53.6453 92.4689 54.1606 93.4907 54.1518H141.278C142.919 54.1586 144.25 55.4411 144.25 57.0242Z" fill="black"/>
</g>
<path d="M144.25 57.0242V117.639C144.25 119.222 142.919 120.5 141.275 120.5H68.2322C66.5888 120.5 65.25 119.222 65.25 117.639V48.3696C65.25 46.7865 66.5907 45.5 68.2322 45.5H84.6409C85.661 45.4942 86.6146 46.0071 87.1739 46.8624L90.9577 52.7857C91.5134 53.6453 92.4689 54.1606 93.4907 54.1518H141.278C142.919 54.1586 144.25 55.4411 144.25 57.0242Z" fill="url(#paint0_linear_170_321)"/>
<path d="M144.25 57.0242V117.639C144.25 119.222 142.919 120.5 141.275 120.5H68.2322C66.5888 120.5 65.25 119.222 65.25 117.639V48.3696C65.25 46.7865 66.5907 45.5 68.2322 45.5H84.6409C85.661 45.4942 86.6146 46.0071 87.1739 46.8624L90.9577 52.7857C91.5134 53.6453 92.4689 54.1606 93.4907 54.1518H141.278C142.919 54.1586 144.25 55.4411 144.25 57.0242Z" fill="#3182CE"/>
<path d="M137.7 55.5H70.8C69.3917 55.5 68.25 56.6417 68.25 58.05V116.95C68.25 118.358 69.3917 119.5 70.8 119.5H137.7C139.108 119.5 140.25 118.358 140.25 116.95V58.05C140.25 56.6417 139.108 55.5 137.7 55.5Z" fill="#EFEFEF"/>
<path d="M137.7 56.5H70.8C69.3917 56.5 68.25 57.6417 68.25 59.05V117.95C68.25 119.358 69.3917 120.5 70.8 120.5H137.7C139.108 120.5 140.25 119.358 140.25 117.95V59.05C140.25 57.6417 139.108 56.5 137.7 56.5Z" fill="white"/>
<path opacity="0.2" d="M144.25 58.5V112.523L143.704 117.19C143.522 118.755 142.428 120.058 140.927 120.5H68.2322C66.5888 120.5 65.25 119.216 65.25 117.626V67.9874H78.0358C79.6001 67.9881 81.0149 67.0515 81.6348 65.605L83.6554 60.8902C84.2684 59.4402 85.6821 58.4994 87.2467 58.5H144.25Z" fill="#3D3D3D"/>
<path d="M144.931 118.026C144.701 120.007 143.042 121.5 141.072 121.5H68.3306C66.36 121.5 64.7012 120.007 64.4712 118.026L59.2767 73.3548C59.1469 72.2393 59.4946 71.1207 60.232 70.2813C60.9695 69.4419 62.0263 68.9616 63.136 68.9617H79.767C81.3193 68.9618 82.7227 68.0269 83.3365 66.5837L85.3389 61.8779C85.9527 60.4348 87.3561 59.5 88.9084 59.5H147.361C148.471 59.4992 149.529 59.9791 150.267 60.8186C151.005 61.6581 151.353 62.7771 151.223 63.8932L144.931 118.026Z" fill="#3182CE"/>
<defs>
<filter id="filter0_d_170_321" x="90.25" y="26.5" width="114" height="122" filterUnits="userSpaceOnUse" color-interpolation-filters="sRGB">
<feFlood flood-opacity="0" result="BackgroundImageFix"/>
<feColorMatrix in="SourceAlpha" type="matrix" values="0 0 0 0 0 0 0 0 0 0 0 0 0 0 0 0 0 0 127 0" result="hardAlpha"/>
<feOffset dy="16"/>
<feGaussianBlur stdDeviation="10"/>
<feColorMatrix type="matrix" values="0 0 0 0 0 0 0 0 0 0 0 0 0 0 0 0 0 0 0.093482 0"/>
<feBlend mode="normal" in2="BackgroundImageFix" result="effect1_dropShadow_170_321"/>
<feBlend mode="normal" in="SourceGraphic" in2="effect1_dropShadow_170_321" result="shape"/>
</filter>
<filter id="filter1_d_170_321" x="0.25" y="20.5" width="120" height="125" filterUnits="userSpaceOnUse" color-interpolation-filters="sRGB">
<feFlood flood-opacity="0" result="BackgroundImageFix"/>
<feColorMatrix in="SourceAlpha" type="matrix" values="0 0 0 0 0 0 0 0 0 0 0 0 0 0 0 0 0 0 127 0" result="hardAlpha"/>
<feOffset dy="16"/>
<feGaussianBlur stdDeviation="10"/>
<feColorMatrix type="matrix" values="0 0 0 0 0 0 0 0 0 0 0 0 0 0 0 0 0 0 0.093482 0"/>
<feBlend mode="normal" in2="BackgroundImageFix" result="effect1_dropShadow_170_321"/>
<feBlend mode="normal" in="SourceGraphic" in2="effect1_dropShadow_170_321" result="shape"/>
</filter>
<filter id="filter2_d_170_321" x="33.25" y="0.5" width="106" height="116" filterUnits="userSpaceOnUse" color-interpolation-filters="sRGB">
<feFlood flood-opacity="0" result="BackgroundImageFix"/>
<feColorMatrix in="SourceAlpha" type="matrix" values="0 0 0 0 0 0 0 0 0 0 0 0 0 0 0 0 0 0 127 0" result="hardAlpha"/>
<feOffset dy="16"/>
<feGaussianBlur stdDeviation="10"/>
<feColorMatrix type="matrix" values="0 0 0 0 0 0 0 0 0 0 0 0 0 0 0 0 0 0 0.093482 0"/>
<feBlend mode="normal" in2="BackgroundImageFix" result="effect1_dropShadow_170_321"/>
<feBlend mode="normal" in="SourceGraphic" in2="effect1_dropShadow_170_321" result="shape"/>
</filter>
<filter id="filter3_d_170_321" x="71.25" y="4.5" width="113" height="120" filterUnits="userSpaceOnUse" color-interpolation-filters="sRGB">
<feFlood flood-opacity="0" result="BackgroundImageFix"/>
<feColorMatrix in="SourceAlpha" type="matrix" values="0 0 0 0 0 0 0 0 0 0 0 0 0 0 0 0 0 0 127 0" result="hardAlpha"/>
<feOffset dy="16"/>
<feGaussianBlur stdDeviation="10"/>
<feColorMatrix type="matrix" values="0 0 0 0 0 0 0 0 0 0 0 0 0 0 0 0 0 0 0.093482 0"/>
<feBlend mode="normal" in2="BackgroundImageFix" result="effect1_dropShadow_170_321"/>
<feBlend mode="normal" in="SourceGraphic" in2="effect1_dropShadow_170_321" result="shape"/>
</filter>
<filter id="filter4_d_170_321" x="45.25" y="41.5" width="119" height="115" filterUnits="userSpaceOnUse" color-interpolation-filters="sRGB">
<feFlood flood-opacity="0" result="BackgroundImageFix"/>
<feColorMatrix in="SourceAlpha" type="matrix" values="0 0 0 0 0 0 0 0 0 0 0 0 0 0 0 0 0 0 127 0" result="hardAlpha"/>
<feOffset dy="16"/>
<feGaussianBlur stdDeviation="10"/>
<feColorMatrix type="matrix" values="0 0 0 0 0.258824 0 0 0 0 0.6 0 0 0 0 0.882353 0 0 0 0.3 0"/>
<feBlend mode="normal" in2="BackgroundImageFix" result="effect1_dropShadow_170_321"/>
<feBlend mode="normal" in="SourceGraphic" in2="effect1_dropShadow_170_321" result="shape"/>
</filter>
<linearGradient id="paint0_linear_170_321" x1="104.75" y1="45.5" x2="104.75" y2="120.5" gradientUnits="userSpaceOnUse">
<stop stop-color="#7A62E4"/>
<stop offset="1" stop-color="#656EE4"/>
</linearGradient>
</defs>
</svg>
