<svg width="177" height="94" viewBox="0 0 177 94" fill="none" xmlns="http://www.w3.org/2000/svg">
<path d="M43.872 60.432C42.024 60.432 40.404 60.108 39.012 59.46C37.62 58.812 36.528 57.888 35.736 56.688C34.968 55.488 34.572 54.06 34.548 52.404H38.58C38.604 53.748 39.072 54.888 39.984 55.824C40.896 56.76 42.18 57.228 43.836 57.228C45.3 57.228 46.44 56.88 47.256 56.184C48.096 55.464 48.516 54.552 48.516 53.448C48.516 52.56 48.312 51.84 47.904 51.288C47.52 50.736 46.98 50.28 46.284 49.92C45.612 49.56 44.832 49.236 43.944 48.948C43.056 48.66 42.12 48.348 41.136 48.012C39.192 47.364 37.728 46.524 36.744 45.492C35.784 44.46 35.304 43.104 35.304 41.424C35.28 40.008 35.604 38.772 36.276 37.716C36.972 36.66 37.932 35.844 39.156 35.268C40.404 34.668 41.856 34.368 43.512 34.368C45.144 34.368 46.572 34.668 47.796 35.268C49.044 35.868 50.016 36.708 50.712 37.788C51.408 38.844 51.768 40.08 51.792 41.496H47.76C47.76 40.848 47.592 40.236 47.256 39.66C46.92 39.06 46.428 38.568 45.78 38.184C45.132 37.8 44.34 37.608 43.404 37.608C42.204 37.584 41.208 37.884 40.416 38.508C39.648 39.132 39.264 39.996 39.264 41.1C39.264 42.084 39.552 42.84 40.128 43.368C40.704 43.896 41.496 44.34 42.504 44.7C43.512 45.036 44.664 45.432 45.96 45.888C47.208 46.296 48.324 46.788 49.308 47.364C50.292 47.94 51.072 48.696 51.648 49.632C52.248 50.568 52.548 51.756 52.548 53.196C52.548 54.468 52.224 55.656 51.576 56.76C50.928 57.84 49.956 58.728 48.66 59.424C47.364 60.096 45.768 60.432 43.872 60.432ZM64.9281 60.432C63.1761 60.432 61.6161 60.048 60.2481 59.28C58.9041 58.488 57.8481 57.396 57.0801 56.004C56.3121 54.612 55.9281 52.992 55.9281 51.144C55.9281 49.272 56.3001 47.628 57.0441 46.212C57.8121 44.796 58.8681 43.692 60.2121 42.9C61.5801 42.108 63.1641 41.712 64.9641 41.712C66.7161 41.712 68.2401 42.108 69.5361 42.9C70.8321 43.668 71.8401 44.7 72.5601 45.996C73.2801 47.292 73.6401 48.72 73.6401 50.28C73.6401 50.52 73.6281 50.784 73.6041 51.072C73.6041 51.336 73.5921 51.636 73.5681 51.972H59.6721C59.7921 53.7 60.3561 55.02 61.3641 55.932C62.3961 56.82 63.5841 57.264 64.9281 57.264C66.0081 57.264 66.9081 57.024 67.6281 56.544C68.3721 56.04 68.9241 55.368 69.2841 54.528H73.1001C72.6201 56.208 71.6601 57.612 70.2201 58.74C68.8041 59.868 67.0401 60.432 64.9281 60.432ZM64.9281 44.844C63.6561 44.844 62.5281 45.228 61.5441 45.996C60.5601 46.74 59.9601 47.868 59.7441 49.38H69.8241C69.7521 47.988 69.2601 46.884 68.3481 46.068C67.4361 45.252 66.2961 44.844 64.9281 44.844ZM77.5995 60V42.144H80.9835L81.2715 45.276C81.8235 44.172 82.6275 43.308 83.6835 42.684C84.7635 42.036 85.9995 41.712 87.3915 41.712C89.5515 41.712 91.2435 42.384 92.4675 43.728C93.7155 45.072 94.3395 47.076 94.3395 49.74V60H90.5595V50.136C90.5595 46.68 89.1435 44.952 86.3115 44.952C84.8955 44.952 83.7195 45.456 82.7835 46.464C81.8715 47.472 81.4155 48.912 81.4155 50.784V60H77.5995ZM106.322 60C104.57 60 103.178 59.58 102.146 58.74C101.114 57.876 100.598 56.352 100.598 54.168V45.348H97.5379V42.144H100.598L101.066 37.608H104.414V42.144H109.454V45.348H104.414V54.168C104.414 55.152 104.618 55.836 105.026 56.22C105.458 56.58 106.19 56.76 107.222 56.76H109.274V60H106.322ZM115.549 38.76C114.829 38.76 114.229 38.544 113.749 38.112C113.293 37.656 113.065 37.092 113.065 36.42C113.065 35.748 113.293 35.196 113.749 34.764C114.229 34.308 114.829 34.08 115.549 34.08C116.269 34.08 116.857 34.308 117.313 34.764C117.793 35.196 118.033 35.748 118.033 36.42C118.033 37.092 117.793 37.656 117.313 38.112C116.857 38.544 116.269 38.76 115.549 38.76ZM113.641 60V42.144H117.457V60H113.641ZM130.846 60.432C129.094 60.432 127.534 60.048 126.166 59.28C124.822 58.488 123.766 57.396 122.998 56.004C122.23 54.612 121.846 52.992 121.846 51.144C121.846 49.272 122.218 47.628 122.962 46.212C123.73 44.796 124.786 43.692 126.13 42.9C127.498 42.108 129.082 41.712 130.882 41.712C132.634 41.712 134.158 42.108 135.454 42.9C136.75 43.668 137.758 44.7 138.478 45.996C139.198 47.292 139.558 48.72 139.558 50.28C139.558 50.52 139.546 50.784 139.522 51.072C139.522 51.336 139.51 51.636 139.486 51.972H125.59C125.71 53.7 126.274 55.02 127.282 55.932C128.314 56.82 129.502 57.264 130.846 57.264C131.926 57.264 132.826 57.024 133.546 56.544C134.29 56.04 134.842 55.368 135.202 54.528H139.018C138.538 56.208 137.578 57.612 136.138 58.74C134.722 59.868 132.958 60.432 130.846 60.432ZM130.846 44.844C129.574 44.844 128.446 45.228 127.462 45.996C126.478 46.74 125.878 47.868 125.662 49.38H135.742C135.67 47.988 135.178 46.884 134.266 46.068C133.354 45.252 132.214 44.844 130.846 44.844ZM143.517 60V42.144H146.901L147.189 45.276C147.741 44.172 148.545 43.308 149.601 42.684C150.681 42.036 151.917 41.712 153.309 41.712C155.469 41.712 157.161 42.384 158.385 43.728C159.633 45.072 160.257 47.076 160.257 49.74V60H156.477V50.136C156.477 46.68 155.061 44.952 152.229 44.952C150.813 44.952 149.637 45.456 148.701 46.464C147.789 47.472 147.333 48.912 147.333 50.784V60H143.517ZM172.24 60C170.488 60 169.096 59.58 168.064 58.74C167.032 57.876 166.516 56.352 166.516 54.168V45.348H163.456V42.144H166.516L166.984 37.608H170.332V42.144H175.372V45.348H170.332V54.168C170.332 55.152 170.536 55.836 170.944 56.22C171.376 56.58 172.108 56.76 173.14 56.76H175.192V60H172.24Z" fill="white"/>
<path d="M8.64 72L28.152 28.152H1.944V21.6H36V27.144L16.632 72H8.64Z" fill="white"/>
</svg>
