<svg width="447" height="643" viewBox="0 0 447 643" fill="none" xmlns="http://www.w3.org/2000/svg">
<g filter="url(#filter0_d_114_169)">
<path d="M4 20C4 8.9543 12.9543 0 24 0H423C434.046 0 443 8.95431 443 20V615C443 626.046 434.046 635 423 635H24C12.9543 635 4 626.046 4 615V20Z" fill="white"/>
<path d="M127.361 299.299C107.456 302.436 96.6392 302.64 78.1448 299.299C66.231 316.736 66.9119 335.335 78.1448 380.516H127.361C133.385 341.339 137.608 318.326 127.361 299.299Z" fill="#D92323"/>
<ellipse cx="102.813" cy="299.299" rx="24.6777" ry="4.97575" fill="#B32121"/>
<path d="M373.541 294.738C353.636 297.875 342.819 298.079 324.325 294.738C312.411 312.175 313.092 330.774 324.325 375.954H373.541C379.565 336.778 383.788 313.765 373.541 294.738Z" fill="#D92323"/>
<ellipse cx="348.993" cy="294.738" rx="24.6777" ry="4.97575" fill="#B32121"/>
<path d="M181.125 228.523L170.329 231.802L172.371 239.55L184.918 235.974C184.918 235.974 187.801 235.175 189.587 234.484C192.066 233.525 193.584 233.113 195.715 231.504C197.725 229.986 198.811 228.927 200.092 226.735C201.036 225.121 201.843 223.159 201.843 222.265C201.843 221.371 201.551 219.582 200.967 219.284C200.384 218.986 198.985 219.945 197.757 220.477C195.739 221.35 194.779 222.202 192.797 223.159C191.782 223.649 190.171 224.351 190.171 224.351C190.171 224.351 189.004 224.053 188.712 223.159C188.42 222.265 188.712 220.979 188.712 219.582C188.712 219.117 188.965 218.778 188.712 218.39C188.256 217.692 186.961 219.582 186.961 219.582L184.918 222.861L183.459 226.437L181.125 228.523Z" fill="#F0D9C4"/>
<path d="M160.408 211.363C158.839 212.433 157.779 212.725 156.031 213.449C155.128 213.822 153.696 214.343 153.696 214.343L152.237 217.919L154.863 222.39C154.863 222.39 157.29 221.511 158.657 220.601C160.211 219.568 162.158 217.323 162.158 217.323C162.158 217.323 162.693 217.346 163.034 217.323C164.221 217.245 164.816 216.792 165.952 216.429C167.671 215.879 168.656 215.624 170.329 214.939C171.607 214.416 173.538 213.449 173.538 213.449C173.538 213.449 174.414 212.853 174.122 211.959C173.83 211.065 173.247 211.363 172.955 211.363C172.663 211.363 170.037 211.661 170.037 211.661C170.037 211.661 169.501 210.607 169.453 209.872C169.381 208.771 169.941 208.221 170.329 207.19C171.152 205.004 172.782 204.161 172.955 201.826C172.989 201.361 173.208 201.021 172.955 200.634C172.576 200.053 171.882 200.543 171.204 200.634C168.398 201.01 165.66 205.402 165.66 205.402C165.66 205.402 162.957 209.623 160.408 211.363Z" fill="#F0D9C4"/>
<path d="M138.251 218.832C135.772 219.28 131.832 219.428 131.832 219.428C131.832 219.428 131.097 222.872 131.248 225.09C131.532 229.252 135.333 234.925 135.333 234.925C135.333 234.925 140.786 233.84 144.087 232.541C149.284 230.496 152.196 228.888 156.343 225.09C158.203 223.386 160.719 220.322 160.719 220.322L156.343 211.083C156.343 211.083 152.168 213.636 149.339 214.957C145.177 216.901 142.758 218.016 138.251 218.832Z" fill="#9865B0"/>
<path d="M124.846 165.679C124.846 165.679 121.022 174.36 120.525 174.113C120.029 173.866 116.931 172.105 115.148 172.936C114.187 173.384 113.714 174.308 113.276 175.29C112.708 176.564 113.07 177.583 113.276 178.968C113.575 180.983 115.148 183.724 115.148 183.724C114.071 184.377 113.633 184.444 112.556 185.097C112.884 187.96 112.887 194.003 112.887 194.003H122.064C122.064 194.003 121.713 190.532 122.064 188.965C122.517 186.942 132.724 194.69 133.746 192.365C136.893 182.388 136.788 176.335 135.09 165.167L124.846 165.679Z" fill="#F0D9C4"/>
<path d="M105.159 180.231C107.266 183.854 112.541 185.607 112.541 185.607L115.499 184.014C115.499 184.014 113.971 181.044 113.687 178.964C113.502 177.607 113.174 176.722 113.687 175.456C114.104 174.43 114.489 173.709 115.499 173.297C116.307 172.968 116.876 173.111 117.726 173.297C119.067 173.591 120.724 175.166 120.724 175.166C120.724 175.166 122.702 171.873 124.33 170.028C127.454 166.486 135.26 165.09 135.26 165.09C135.26 165.09 131.591 159.386 127.896 157.822C125.286 156.717 120.724 156.857 120.724 156.857C120.724 156.857 121.847 153.107 121.493 150.716C121.2 148.74 120.771 147.591 119.639 145.96C118.459 144.259 117.539 143.315 115.661 142.497C113.673 141.632 112.337 141.53 110.179 141.643C108.283 141.742 107.115 142.143 105.354 142.867C103.449 143.649 102.381 144.357 101.059 145.96C99.9138 147.348 99.4036 148.327 98.9626 150.085C98.1741 153.228 98.525 155.589 100.3 158.28C101.981 160.829 106.769 162.555 106.769 162.555C106.769 162.555 104.893 166.354 104.156 169.362C103.089 173.713 103.051 176.606 105.159 180.231Z" fill="#744916"/>
<path d="M120.786 156.836L106.843 162.501C106.002 162.569 105.381 162.711 105.542 162.086L121.238 155.113C121.489 155.386 121.391 155.775 120.786 156.836Z" fill="#AB6FC7" stroke="#AB6FC7"/>
<path d="M138.814 351.454C140.069 350.813 141.441 350.857 141.441 350.857L149.903 353.242C149.903 353.242 151.362 353.838 152.237 355.03C153.112 356.222 157.482 364.265 162.158 369.037C163.985 370.902 166.827 372.315 167.119 373.507C167.41 374.7 167.47 374.59 167.41 375.296C167.29 376.711 165.368 378.276 165.368 378.276L133.562 359.202C133.562 359.202 134.146 357.414 135.021 355.924C135.896 354.434 137.56 352.094 138.814 351.454Z" fill="#B5DED9"/>
<path d="M140.857 351.453L143.775 343.407L153.696 347.281L149.027 355.03C149.027 355.03 148.349 355.48 147.86 355.626C146.637 355.99 145.844 355.484 144.65 355.03C143.405 354.556 142.556 354.307 141.732 353.242C141.258 352.629 140.857 351.453 140.857 351.453Z" fill="#F0D8C3"/>
<path d="M149.027 323.737L159.24 299.299H184.626L178.499 309.134L163.909 335.956L156.906 349.963L139.981 344.003L149.027 323.737Z" fill="#1A1E45"/>
<path d="M175.65 370.825C176.123 369.23 177.401 366.951 177.401 366.951L187.906 365.461C187.906 365.461 192.23 366.555 194.909 367.547C198.695 368.949 200.346 370.992 204.246 372.017C207.025 372.748 210.666 371.719 211.541 372.911C212.416 374.103 212.507 374.275 212.708 375.296C212.934 376.442 212.416 378.276 212.416 378.276L175.65 378.574C175.65 378.574 175.225 377.382 175.067 376.786C174.908 376.19 174.986 373.064 175.65 370.825Z" fill="#B5DED9"/>
<path d="M177.401 368.441V354.434L188.781 353.54C188.781 353.54 188.059 357.517 187.906 360.096C187.781 362.187 187.906 365.461 187.906 365.461C187.906 365.461 188.077 366.573 187.906 367.249C187.66 368.218 187.221 368.721 186.447 369.335C185.085 370.415 183.237 370.229 180.902 369.633C178.568 369.037 177.401 368.441 177.401 368.441Z" fill="#F0D8C3"/>
<path d="M104.051 300.789C101.818 299.299 98.3192 295.704 96.7953 291.252C95.4769 287.401 95.2296 284.776 96.2117 280.821C97.2858 276.495 101.724 275.159 101.724 275.159C101.724 275.159 124.685 275.457 139.397 275.457C146.984 275.457 167.993 278.437 167.993 278.437L189.444 281.715C189.444 281.715 194.467 282.907 196.42 285.292C198.374 287.676 198.374 288.57 199.211 291.252C200.048 293.934 198.9 301.983 198.374 308.836C196.928 327.658 190.839 356.52 190.839 356.52H174.654L178.79 301.087C178.79 301.087 168.49 301.325 162.933 301.683C144.618 302.864 123.306 305.855 116.051 304.961C108.795 304.067 106.283 302.279 104.051 300.789Z" fill="#343B76"/>
<path d="M127.652 193.08H108.686C108.686 193.08 111.155 198.001 109.694 200.531C107.079 205.061 104.577 212.851 104.577 212.851C104.577 212.851 102.684 222.91 101.771 229.404C101.064 234.433 100.725 237.262 100.243 242.318C99.7355 247.636 99.7923 250.648 99.27 255.964C98.1406 267.458 93.1538 285.858 93.1538 285.858C93.1538 285.858 101.186 286.718 106.351 286.959C112.895 287.263 116.593 287.47 123.124 286.959C129.273 286.478 140.301 283.882 140.301 283.882C140.301 283.882 137.574 274.929 137.574 269.637V256.085C137.574 256.085 150.486 253.999 154.863 252.807C160.7 251.217 169.098 247.944 174.122 245.058C178.79 242.376 184.844 237.784 184.844 237.784C183.386 233.336 180.176 226.757 180.176 226.757C180.176 226.757 177.863 227.481 176.382 227.949C171.013 229.65 168.147 231.132 162.668 232.42C157.281 233.686 154.178 234.147 148.662 234.506C144.34 234.787 137.574 234.506 137.574 234.506C137.574 234.506 139.431 229.896 139.431 227.949C139.431 224.269 136.358 219.898 133.792 216.382C129.42 210.388 126.816 208.2 125.2 199.318C124.673 196.421 127.652 193.08 127.652 193.08Z" fill="#AB6FC7"/>
<path d="M117.526 182.518L117.005 182.282L116.513 182.518L115.992 184.923L117.005 188.504L118.183 184.923L117.526 182.518Z" stroke="#D92323"/>
<path d="M305.514 192.667L310.187 203.476L303.019 206.803L297.414 194.39C297.414 194.39 296.109 191.553 295.448 189.67C294.53 187.055 293.836 185.567 293.636 182.816C293.447 180.222 293.525 178.666 294.324 176.226C294.913 174.429 295.853 172.519 296.524 171.945C297.195 171.371 298.73 170.459 299.34 170.738C299.949 171.018 300.154 172.76 300.566 174.091C301.243 176.279 301.238 177.601 301.83 179.813C302.132 180.945 302.67 182.695 302.67 182.695C302.67 182.695 303.665 183.445 304.529 183.107C305.393 182.768 306.165 181.708 307.214 180.811C307.563 180.512 307.651 180.091 308.109 180.046C308.934 179.965 308.371 182.223 308.371 182.223L307.259 185.974L305.538 189.446L305.514 192.667Z" fill="#F0D9C4"/>
<path d="M280.304 223.911C282.193 224.286 283.313 224.139 285.247 224.123C286.245 224.114 287.803 224.033 287.803 224.033L290.507 226.774L289.639 231.953C289.639 231.953 287 232.094 285.362 231.789C283.499 231.442 280.818 230.127 280.818 230.127C280.818 230.127 280.316 230.359 279.982 230.472C278.82 230.867 278.086 230.682 276.869 230.792C275.026 230.959 273.992 231.11 272.144 231.133C270.732 231.151 268.534 231.015 268.534 231.015C268.534 231.015 267.48 230.807 267.431 229.863C267.381 228.919 268.048 228.966 268.326 228.851C268.605 228.736 271.221 227.979 271.221 227.979C271.221 227.979 271.346 226.791 271.123 226.091C270.787 225.041 270.052 224.751 269.304 223.948C267.716 222.245 265.851 222.106 264.83 220.008C264.627 219.591 264.294 219.361 264.393 218.902C264.542 218.214 265.384 218.396 266.064 218.213C268.881 217.457 273.105 220.452 273.105 220.452C273.105 220.452 277.232 223.302 280.304 223.911Z" fill="#F0D9C4"/>
<path d="M307.494 220.82C309.946 219.971 313.58 218.124 313.58 218.124C313.58 218.124 315.854 220.783 316.753 222.808C318.44 226.608 317.65 233.501 317.65 233.501C317.65 233.501 312.21 235.282 308.616 235.796C302.959 236.605 299.573 236.653 294.048 235.395C291.568 234.83 287.86 233.399 287.86 233.399L287.506 223.084C287.506 223.084 292.475 223.234 295.651 222.976C300.325 222.598 303.035 222.364 307.494 220.82Z" fill="#81ABA6"/>
<path d="M327.369 157.074C327.369 157.074 331.306 165.755 331.818 165.508C332.329 165.261 335.518 163.5 337.353 164.331C338.343 164.779 338.83 165.703 339.281 166.685C339.866 167.959 339.492 168.978 339.281 170.363C338.973 172.378 337.353 175.119 337.353 175.119C338.462 175.772 338.914 175.839 340.022 176.492C339.685 179.354 339.682 185.398 339.682 185.398H330.234C330.234 185.398 330.595 181.927 330.234 180.36C329.767 178.337 319.259 186.085 318.207 183.76C314.968 173.783 315.076 167.73 316.824 156.562L327.369 157.074Z" fill="#F0D9C4"/>
<path d="M347.637 171.626C345.468 175.249 340.038 177.002 340.038 177.002L336.993 175.409C336.993 175.409 338.566 172.439 338.858 170.359C339.048 169.002 339.386 168.116 338.858 166.851C338.429 165.825 338.032 165.104 336.993 164.692C336.161 164.363 335.575 164.506 334.7 164.692C333.319 164.986 331.613 166.561 331.613 166.561C331.613 166.561 329.577 163.267 327.901 161.422C324.685 157.881 316.649 156.485 316.649 156.485C316.649 156.485 320.427 150.781 324.23 149.217C326.917 148.112 331.613 148.252 331.613 148.252C331.613 148.252 330.457 144.501 330.822 142.111C331.124 140.135 331.565 138.986 332.73 137.355C333.946 135.654 334.893 134.71 336.826 133.892C338.872 133.026 340.248 132.925 342.47 133.038C344.421 133.137 345.624 133.538 347.437 134.262C349.397 135.044 350.497 135.752 351.858 137.355C353.037 138.743 353.562 139.722 354.016 141.48C354.828 144.623 354.467 146.984 352.64 149.675C350.909 152.224 345.98 153.95 345.98 153.95C345.98 153.95 347.911 157.749 348.67 160.757C349.768 165.108 349.808 168.001 347.637 171.626Z" fill="#ECC69A"/>
<path d="M331.549 148.231L345.903 153.896C346.769 153.964 347.408 154.106 347.242 153.481L331.084 146.508C330.826 146.78 330.926 147.17 331.549 148.231Z" fill="#AB6FC7" stroke="#AB6FC7"/>
<path d="M312.989 342.848C311.698 342.208 310.286 342.252 310.286 342.252L301.574 344.637C301.574 344.637 300.072 345.233 299.171 346.425C298.27 347.617 293.771 355.66 288.958 360.432C287.076 362.297 284.151 363.71 283.851 364.902C283.55 366.094 283.489 365.985 283.55 366.691C283.675 368.106 285.653 369.671 285.653 369.671L318.396 350.597C318.396 350.597 317.796 348.809 316.894 347.319C315.993 345.829 314.281 343.489 312.989 342.848Z" fill="#D0BCDA"/>
<path d="M310.251 342.678L306.05 330.619L297.038 337.687L302.894 349.093C302.894 349.093 303.63 349.71 304.131 349.88C305.385 350.304 306.071 349.437 307.158 348.605C308.292 347.738 309.076 347.259 309.699 345.528C310.058 344.532 310.251 342.678 310.251 342.678Z" fill="#F0D8C3"/>
<path d="M275.068 362.22C274.581 360.625 273.265 358.346 273.265 358.346L262.451 356.856C262.451 356.856 257.999 357.95 255.242 358.942C251.344 360.344 249.644 362.387 245.629 363.412C242.768 364.143 239.02 363.114 238.119 364.306C237.218 365.498 237.125 365.67 236.917 366.69C236.685 367.837 237.218 369.671 237.218 369.671L275.068 369.969C275.068 369.969 275.505 368.777 275.669 368.181C275.832 367.585 275.752 364.459 275.068 362.22Z" fill="#D0BCDA"/>
<path d="M273.266 359.836V345.829L261.55 344.935C261.55 344.935 262.293 348.912 262.451 351.491C262.579 353.582 262.451 356.856 262.451 356.856C262.451 356.856 262.275 357.968 262.451 358.644C262.704 359.613 263.156 360.116 263.953 360.73C265.355 361.81 267.258 361.624 269.661 361.028C272.064 360.432 273.266 359.836 273.266 359.836Z" fill="#F0D8C3"/>
<path d="M348.778 292.184C351.076 290.694 354.678 287.099 356.247 282.647C357.604 278.795 357.859 276.171 356.848 272.216C355.742 267.89 351.173 266.554 351.173 266.554C351.173 266.554 327.535 266.852 312.389 266.852C304.579 266.852 282.95 269.832 282.95 269.832L260.867 273.11C260.867 273.11 255.696 274.302 253.685 276.686C251.674 279.071 251.674 279.965 250.812 282.647C249.95 285.329 251.132 293.378 251.674 300.231C253.162 319.052 262.245 294.684 262.245 294.684L265.454 293.934L268.626 294.684C268.626 294.684 282.438 292.72 288.16 293.078C307.014 294.259 328.955 297.25 336.424 296.356C343.894 295.462 346.479 293.674 348.778 292.184Z" fill="#D18B02"/>
<path d="M252.219 319.091C252.873 306.277 252.219 286.186 252.219 286.186L300.654 292.385C300.654 292.385 300.58 295.585 300.654 297.631C301.114 310.305 302.961 318.715 309.049 327.675C310.765 330.2 313.893 333.397 313.893 333.397C313.893 333.397 312.992 334.991 312.278 335.782C309.252 339.134 304.951 336.584 300.654 338.394C294.639 340.927 293.768 346.346 287.256 348.507C278.644 351.365 272.118 349.98 263.348 348.507C257.868 347.586 250.281 341.504 250.281 341.504C250.281 341.504 251.769 327.89 252.219 319.091Z" fill="#D18B02"/>
<path d="M343.938 184.261H324.328C324.328 184.261 327.409 187.453 326.864 190.221C325.193 198.709 322.501 200.8 317.98 206.527C317.433 207.22 316.864 207.947 316.305 208.697C315.283 207.186 314.01 205.48 313.108 202.851C311.936 199.434 312.229 200.288 311.057 197.155C310.511 195.696 307.834 192.029 307.834 192.029C307.834 192.029 293.224 196.606 291.716 200.858C291.716 200.858 292.258 205.759 295.232 210.256C297.87 214.243 299.196 217.777 303.438 222.217C307.247 226.204 313.108 232.754 313.108 232.754C313.108 237.811 314.071 252.358 314.071 257.416C314.071 262.473 311.251 271.028 311.251 271.028C311.251 271.028 322.653 273.508 329.01 273.968C335.762 274.456 339.586 274.259 346.351 273.968C351.692 273.738 359.996 272.916 359.996 272.916C359.996 272.916 354.84 255.334 353.673 244.35C353.133 239.27 353.191 236.392 352.667 231.311C352.169 226.479 351.818 223.775 351.087 218.97C350.143 212.765 348.185 203.153 348.185 203.153C348.185 203.153 345.599 195.709 342.895 191.38C341.384 188.962 343.938 184.261 343.938 184.261Z" fill="#A4D0CB"/>
<path d="M336.756 177.002C336.756 178.316 335.716 179.363 334.455 179.363C333.194 179.363 332.154 178.316 332.154 177.002C332.154 175.688 333.194 174.641 334.455 174.641C335.716 174.641 336.756 175.688 336.756 177.002Z" stroke="black"/>
<path d="M122.079 397.067C127.707 395.25 133.277 395.18 139.15 395.159C156.353 395.095 173.489 396.155 190.665 397.014C223.344 398.647 256.41 398.865 289.048 396.113C296.665 395.47 319.308 391.785 311.826 393.41C298.966 396.202 285.959 397.732 272.887 398.975C237.784 402.312 202.589 404.782 167.382 406.5C133.55 408.151 31.9485 409.468 65.8167 409.468C118.347 409.468 170.775 413.228 223.291 414.238C253.995 414.828 284.703 415.142 315.412 415.192C323.998 415.205 332.584 415.117 341.169 415.192C344.883 415.224 354.358 413.837 352.179 416.993C350.949 418.776 345.779 421.041 344.755 421.498C335.359 425.689 325.278 428.019 315.311 430.137C283.151 436.968 250.538 440.651 217.887 443.704C196.589 445.695 175.231 447.162 153.998 449.851C150.668 450.273 137.587 451.589 148.746 450.487C161.007 449.276 173.419 449.556 185.715 449.533C217.081 449.476 248.457 449.372 279.806 450.593C297.487 451.282 315.304 452.031 332.886 454.25C339.84 455.128 343.151 456.466 334.907 459.497C316.091 466.412 295.011 467.592 275.361 469.566C238.681 473.251 201.894 475.742 165.109 477.94C147.29 479.004 129.453 479.847 111.675 481.543C102.234 482.444 116.637 481.967 117.837 481.967C172.725 481.967 227.553 485.155 282.432 485.677C308.274 485.923 334.12 485.613 359.957 486.313C362.603 486.385 386.694 484.662 388.947 489.175C390.175 491.636 369.742 500.93 367.533 502" stroke="black" stroke-width="3" stroke-linecap="round"/>
</g>
<defs>
<filter id="filter0_d_114_169" x="0" y="0" width="447" height="643" filterUnits="userSpaceOnUse" color-interpolation-filters="sRGB">
<feFlood flood-opacity="0" result="BackgroundImageFix"/>
<feColorMatrix in="SourceAlpha" type="matrix" values="0 0 0 0 0 0 0 0 0 0 0 0 0 0 0 0 0 0 127 0" result="hardAlpha"/>
<feOffset dy="4"/>
<feGaussianBlur stdDeviation="2"/>
<feComposite in2="hardAlpha" operator="out"/>
<feColorMatrix type="matrix" values="0 0 0 0 0 0 0 0 0 0 0 0 0 0 0 0 0 0 0.25 0"/>
<feBlend mode="normal" in2="BackgroundImageFix" result="effect1_dropShadow_114_169"/>
<feBlend mode="normal" in="SourceGraphic" in2="effect1_dropShadow_114_169" result="shape"/>
</filter>
</defs>
</svg>
