<svg width="1512" height="1173" viewBox="0 0 1512 1173" fill="none" xmlns="http://www.w3.org/2000/svg">
<path d="M17.7983 -56.2301C-69.8366 -58.9708 -140.882 14.177 -135.587 101.695L-98.2968 718.094C-92.9852 805.892 -13.1741 870.006 73.7047 856.267L723.058 753.58C781.761 744.297 829.333 701.016 844.108 643.449L969.435 155.132C993.152 62.7249 925.126 -27.854 829.77 -30.8362L17.7983 -56.2301Z" fill="url(#paint0_linear_169_13)"/>
<g style="mix-blend-mode:color-burn" opacity="0.2">
<path d="M-709.83 672.741C-515.435 551.964 -283.728 436.136 -112.168 309.231C-44.9012 259.473 -88.7281 243.394 -89.6269 217.051C-91.3033 167.916 65.2801 76.5192 160.012 18.7373C308.492 -71.8287 480.009 -159.011 638.951 -242.223C672.676 -259.879 713.282 -279.586 740.553 -298.705" stroke="#276EF1" stroke-width="2" stroke-linecap="round" stroke-linejoin="round"/>
<path d="M0.999998 861.609C-329.359 865.774 112.918 436.16 333.39 653.899C553.862 871.639 589.967 474.439 652.525 389.102C679.863 351.81 654.596 328.247 593.169 339.006C537.658 348.728 480.833 357.217 433.755 360.031C427.013 360.434 411.07 344.894 414.448 342.026C421.086 336.391 418.411 332.085 425.701 325.111C431.695 319.377 437.58 312.789 443.058 307.023C514.793 231.509 753.586 301.924 862.586 249.008C979.395 192.301 1052.06 1.21602 1151.37 -67.9766C1208.47 -107.756 1414.65 0.368866 1455.76 -38.9592C1467.88 -50.5558 1343.12 -218.324 1363.81 -228.367" stroke="#F8861E" stroke-width="2" stroke-linecap="round" stroke-linejoin="round"/>
<path d="M-34.7988 853.561C-346.34 855.612 78.1582 444.564 291.44 650.042C504.722 855.52 542.442 475.339 605.209 392.141C634.433 354.699 613.41 330.303 557.631 338.535C506.366 346.609 452.526 353.91 407.563 355.945C401.016 355.685 385.299 340.38 388.495 337.021C394.777 330.485 394.073 324.711 403.434 316.345C411.561 309.159 420.157 301.109 427.63 294.241C499.484 220.167 730.715 285.113 838.396 232.644C953.515 176.565 1026.65 -7.44857 1125.02 -75.3275C1180.2 -113.633 1377.45 -11.1018 1417.45 -49.0106C1429.84 -60.5084 1311.83 -220.75 1332.18 -230.77" stroke="#EE8528" stroke-width="2"/>
<path d="M-70.5637 845.498C-363.288 845.433 43.4325 452.952 249.524 646.168C455.616 839.385 494.951 476.223 557.927 395.163C589.037 357.571 572.259 332.342 522.128 338.047C475.108 344.474 424.252 350.586 381.405 351.843C375.052 350.919 359.562 335.849 362.575 332C368.501 324.562 369.769 317.32 381.201 307.562C391.46 298.925 402.768 289.412 412.235 281.443C484.209 208.808 707.879 268.285 814.241 216.265C927.67 160.813 1001.28 -16.1296 1098.71 -82.6949C1151.97 -119.526 1340.28 -22.589 1379.17 -59.0785C1391.83 -70.4776 1280.57 -223.192 1300.59 -233.19" stroke="#E48432" stroke-width="2"/>
<path d="M-106.29 837.415C-380.198 835.235 8.74508 461.321 207.647 642.276C406.549 823.231 447.498 477.088 510.683 398.166C543.679 360.425 531.145 334.362 486.663 337.54C443.887 342.32 396.017 347.244 355.285 347.723C349.126 346.135 333.863 331.3 336.694 326.96C342.264 318.621 345.504 309.911 359.006 298.76C371.398 288.671 385.417 277.697 396.879 268.627C468.972 197.431 685.08 251.439 790.124 199.866C901.862 145.043 975.946 -24.8297 1072.43 -90.0813C1123.78 -125.439 1303.16 -34.095 1340.93 -69.1653C1353.86 -80.4657 1249.35 -225.653 1269.03 -235.628" stroke="#DA833C" stroke-width="2"/>
<path d="M-141.969 829.31C-397.06 825.014 -25.8943 469.667 165.817 638.361C357.529 807.054 400.093 477.931 463.487 401.147C498.369 363.256 490.08 336.359 451.246 337.011C412.715 340.143 367.83 343.879 329.213 343.579C323.248 341.328 308.212 326.728 310.861 321.898C316.075 312.656 321.286 302.479 336.859 289.935C351.384 278.395 368.115 265.958 381.571 255.787C453.783 186.032 662.33 234.57 766.055 183.444C876.102 129.249 950.661 -33.5522 1046.2 -97.4901C1095.63 -131.374 1266.08 -45.6236 1302.74 -79.2746C1315.94 -90.4763 1218.18 -228.137 1237.52 -238.089" stroke="#D08146" stroke-width="2"/>
<path d="M-177.593 821.178C-413.867 814.767 -60.4791 477.987 124.043 634.419C308.564 790.851 352.743 478.747 416.345 404.101C453.113 366.061 449.069 338.33 415.883 336.455C381.598 337.939 339.698 340.487 303.195 339.409C297.425 336.494 282.616 322.129 285.082 316.808C289.94 306.666 297.123 295.02 314.767 281.084C331.424 268.093 350.867 254.194 366.318 242.922C438.649 174.605 639.634 217.675 742.04 166.997C850.397 113.43 925.429 -42.3011 1020.02 -104.925C1067.54 -137.335 1229.05 -57.1787 1264.61 -89.4104C1278.07 -100.513 1187.06 -230.648 1206.07 -240.576" stroke="#C68050" stroke-width="2"/>
<path d="M-213.154 813.015C-430.61 804.488 -95.0004 486.275 82.3311 630.446C259.663 774.616 305.456 479.531 369.268 407.024C407.921 368.834 408.122 340.269 380.584 335.868C350.544 335.704 311.629 337.064 277.241 335.208C271.665 331.63 257.083 317.5 259.367 311.688C263.869 300.644 273.023 287.53 292.738 272.202C311.528 257.759 333.682 242.398 351.128 230.024C423.579 163.148 617.002 200.748 718.09 150.517C824.756 97.5784 900.262 -51.0816 993.907 -112.392C1039.51 -143.328 1192.09 -68.7653 1226.53 -99.5778C1240.27 -110.582 1156 -233.189 1174.68 -243.095" stroke="#BC7F5A" stroke-width="2"/>
<path d="M-248.637 804.815C-447.276 794.172 -129.444 494.526 40.6975 626.435C210.839 758.344 258.248 480.279 322.267 409.909C362.807 371.57 367.252 342.171 345.363 335.243C319.567 333.432 283.637 333.604 251.365 330.97C245.984 326.727 231.628 312.832 233.73 306.53C237.876 294.584 249.001 280.003 270.787 263.282C291.709 247.388 316.575 230.564 336.016 217.09C408.586 151.653 594.447 183.784 694.216 134.001C799.192 81.6899 875.172 -59.8994 967.872 -119.896C1011.56 -149.359 1155.21 -80.3891 1188.54 -109.782C1202.54 -120.688 1125.03 -235.769 1143.36 -245.651" stroke="#B27E64" stroke-width="2"/>
<path d="M-284.028 796.57C-463.851 783.812 -163.796 502.732 -0.844539 622.38C162.107 742.027 211.13 480.981 275.359 412.75C317.785 374.261 326.475 344.029 310.233 334.574C288.683 331.115 255.737 330.099 225.581 326.686C220.393 321.78 206.264 308.12 208.184 301.327C211.974 288.48 225.071 272.43 248.928 254.317C271.982 236.972 299.56 218.686 320.995 204.11C393.684 140.113 571.984 166.775 670.435 117.439C773.72 65.7564 850.174 -68.7621 941.929 -127.445C983.699 -155.434 1118.41 -92.0579 1150.63 -120.032C1164.91 -130.839 1094.14 -238.393 1112.14 -248.252" stroke="#A87D6E" stroke-width="2"/>
<path d="M-319.301 788.267C-480.307 773.394 -198.03 510.882 -42.2686 618.268C113.493 725.653 164.131 481.626 228.568 415.534C272.88 376.895 285.815 345.829 275.222 333.848C257.916 328.741 227.956 326.537 199.914 322.346C194.921 316.776 181.019 303.351 182.756 296.067C186.19 282.319 201.259 264.801 227.186 245.296C252.373 226.499 282.663 206.751 306.093 191.074C378.901 128.516 549.64 149.709 646.771 100.821C748.365 49.766 825.293 -77.6817 916.104 -135.051C955.958 -161.566 1081.74 -103.784 1112.85 -130.338C1127.39 -141.046 1063.37 -241.074 1081.04 -250.91" stroke="#9E7C78" stroke-width="2"/>
<path d="M-354.43 779.895C-496.619 762.906 -232.119 518.961 -83.5482 614.085C65.0231 709.21 117.276 482.202 181.922 418.247C228.12 379.459 245.299 347.559 240.355 333.051C227.294 326.297 200.319 322.905 174.392 317.935C169.593 311.702 155.918 298.512 157.473 290.738C160.551 276.087 177.591 257.102 205.59 236.204C232.909 215.956 265.91 194.746 291.335 177.967C364.262 116.849 527.439 132.573 623.252 84.1321C723.156 33.7055 800.557 -86.6714 890.423 -142.727C928.361 -167.768 1045.21 -115.579 1075.21 -140.715C1090.02 -151.324 1032.75 -243.825 1050.08 -253.638" stroke="#947B82" stroke-width="2"/>
<path d="M-389.374 771.433C-512.745 752.329 -266.024 526.95 -124.643 609.813C16.7383 692.676 70.6064 482.687 135.461 420.871C183.545 381.933 204.969 349.2 205.672 332.165C196.856 323.763 172.866 319.183 149.055 313.435C144.45 306.538 131.002 293.583 132.375 285.318C135.096 269.766 154.108 249.313 184.177 227.023C213.63 205.323 249.342 182.65 276.761 164.771C349.808 105.092 505.424 115.347 599.918 67.3538C698.131 17.5553 776.006 -95.7508 864.927 -150.493C900.949 -174.06 1008.86 -127.465 1037.75 -151.181C1052.84 -161.692 1002.31 -246.665 1019.31 -256.456" stroke="#8B798D" stroke-width="2"/>
<path d="M-424.079 762.855C-528.634 741.635 -299.69 534.824 -165.499 605.425C-31.3081 676.026 24.1748 483.057 89.2387 423.379C139.208 384.292 164.876 350.724 171.228 331.163C166.657 321.113 145.652 315.345 123.956 308.819C119.546 301.259 106.324 288.538 107.515 279.783C109.88 263.329 130.864 241.408 163.004 217.725C194.588 194.574 233.013 170.439 262.427 151.459C335.593 93.2199 483.647 98.0052 576.822 50.4596C673.344 1.28921 751.694 -104.946 839.67 -158.375C873.776 -180.468 972.757 -139.466 1000.53 -161.763C1015.89 -172.175 972.114 -249.622 988.772 -259.389" stroke="#817897" stroke-width="2"/>
<path d="M-458.465 754.122C-544.202 730.786 -333.037 542.542 -206.036 600.882C-79.0345 659.221 -21.9368 483.271 43.3359 425.731C95.1913 386.494 125.104 352.093 137.105 330.005C136.778 318.308 118.758 311.352 99.1768 304.047C94.9613 295.823 81.966 283.338 82.9746 274.091C84.9843 256.736 107.939 233.347 142.15 208.272C175.867 183.67 217.003 158.073 248.412 137.991C321.697 81.1917 462.189 80.5079 554.046 33.4098C648.878 -15.1325 727.701 -114.297 814.732 -166.412C846.922 -187.031 936.971 -151.623 963.636 -172.501C979.258 -182.814 942.235 -252.735 958.557 -262.479" stroke="#7777A1" stroke-width="2"/>
<path d="M-492.407 745.174C-559.328 719.723 -365.94 550.045 -246.129 596.124C-126.318 642.202 -67.6055 483.271 -2.124 427.869C51.6174 388.483 85.7748 353.248 103.423 328.633C107.342 315.288 92.3072 307.144 74.8408 299.061C70.8197 290.173 58.0511 277.923 58.8774 268.186C60.5311 249.929 85.4574 225.072 121.739 198.605C157.589 172.551 201.436 145.492 234.84 124.309C308.245 68.9492 441.175 62.7962 531.713 16.1457C624.854 -31.7686 704.152 -123.862 790.237 -174.664C820.512 -193.809 901.627 -163.995 927.181 -183.453C943.072 -193.668 912.798 -256.061 928.784 -265.782" stroke="#6D76AB" stroke-width="2"/>
<path d="M-525.711 735.915C-573.815 708.349 -398.204 557.238 -285.584 591.055C-172.963 624.871 -112.635 482.96 -46.9451 429.696C8.68227 390.16 47.0843 354.092 70.3812 326.95C78.545 311.957 66.4949 302.626 51.1436 293.764C47.3168 284.213 34.775 272.198 35.4191 261.97C36.7168 242.812 63.6145 216.487 101.967 188.627C139.95 161.122 186.509 132.6 221.907 110.316C295.431 56.3959 420.8 44.7738 510.019 -1.42914C601.469 -48.7154 681.241 -133.739 766.382 -183.226C794.74 -200.898 866.922 -176.677 891.365 -194.716C907.525 -204.832 884 -259.699 899.651 -269.397" stroke="#6375B5" stroke-width="2"/>
<path d="M-558.044 726.185C-587.33 696.504 -429.497 563.96 -324.067 585.515C-218.636 607.07 -156.694 482.177 -90.7946 431.052C-33.2813 391.366 9.3653 354.464 38.3105 324.796C50.7192 308.156 41.6541 297.636 28.4179 287.996C24.7855 277.781 12.4703 266.001 12.9322 255.282C13.8739 235.223 42.7432 207.43 83.1668 178.178C123.282 149.221 172.552 119.237 209.945 95.8522C283.588 43.3713 401.396 26.2801 489.296 -19.4754C579.056 -66.1335 659.301 -144.086 743.497 -192.26C769.94 -208.458 833.188 -189.83 856.52 -206.45C872.95 -216.467 856.174 -263.807 871.488 -273.482" stroke="#5974BF" stroke-width="2"/>
<path d="M-588.863 715.721C-599.333 683.924 -459.278 569.947 -361.037 579.24C-262.796 588.534 -199.239 480.66 -133.131 431.674C-73.7321 391.838 -26.8409 354.102 7.75251 321.908C24.4062 303.619 18.3262 291.912 7.20505 281.493C3.76694 270.615 -8.32147 259.069 -8.04187 247.86C-7.45611 226.899 23.3846 197.638 65.879 166.994C108.127 136.586 160.109 105.14 199.496 80.6535C273.259 29.6122 383.504 7.05177 470.086 -38.2561C558.156 -84.2862 638.875 -155.168 722.126 -202.028C746.652 -216.752 800.968 -203.718 823.188 -218.919C839.887 -228.837 829.86 -268.651 844.839 -278.302" stroke="#4F73C9" stroke-width="2"/>
<path d="M-619.104 704.975C-610.757 671.063 -488.479 575.653 -397.429 572.685C-306.378 569.717 -241.206 478.863 -174.889 432.014C-113.604 392.029 -62.4684 353.46 -22.2267 318.738C-1.32809 298.802 -4.42314 285.907 -13.4291 274.71C-16.6729 263.168 -28.5346 251.857 -28.4372 240.158C-28.2075 218.295 4.60477 187.566 49.17 155.529C93.55 123.67 148.244 90.7616 189.626 65.1741C263.508 15.5724 366.192 -12.4572 451.455 -57.3176C537.834 -102.72 619.027 -166.53 701.333 -212.077C723.943 -225.327 769.326 -217.887 790.435 -231.668C807.404 -241.488 804.125 -273.775 818.768 -283.403" stroke="#4571D3" stroke-width="2"/>
<path d="M-649.346 694.231C-622.181 658.203 -517.682 581.36 -433.821 566.13C-349.961 550.901 -283.174 477.066 -216.649 432.356C-153.478 392.221 -98.0971 352.818 -52.2071 315.57C-27.0635 293.986 -27.1736 279.902 -34.0645 267.927C-37.1139 255.722 -48.7488 244.646 -48.8337 232.456C-48.9599 209.691 -14.1762 177.494 32.4598 144.065C78.9724 110.754 136.378 76.3841 179.754 49.6954C253.756 1.5333 348.878 -31.9654 432.823 -76.3783C517.511 -121.152 599.178 -177.892 680.539 -222.126C701.233 -233.902 737.683 -232.055 757.681 -244.417C774.918 -254.138 778.389 -278.898 792.696 -288.504" stroke="#3B70DD" stroke-width="2"/>
<path d="M-679.588 683.486C-633.607 645.343 -546.885 587.067 -470.215 559.575C-393.544 532.084 -325.142 475.268 -258.408 432.696C-193.351 392.412 -133.726 352.175 -82.1878 312.4C-52.7993 289.169 -49.9243 273.898 -54.7001 261.144C-57.5552 248.275 -68.9634 237.434 -69.2305 224.753C-69.7127 201.087 -32.9575 167.422 15.7494 132.601C64.3946 97.8387 124.512 62.0062 169.883 34.2164C244.004 -12.5062 331.564 -51.4741 414.19 -95.4395C497.188 -139.585 579.328 -189.255 659.744 -232.174C678.523 -242.476 706.039 -246.223 724.926 -257.166C742.433 -266.788 752.653 -284.022 766.624 -293.604" stroke="#316FE7" stroke-width="2"/>
</g>
<defs>
<linearGradient id="paint0_linear_169_13" x1="229.323" y1="615.559" x2="662.065" y2="-29.8635" gradientUnits="userSpaceOnUse">
<stop stop-color="#36B2F8"/>
<stop offset="0.993993" stop-color="#FF5E43"/>
</linearGradient>
</defs>
</svg>
